<svg width="17" height="17" viewBox="0 0 17 17" fill="none" xmlns="http://www.w3.org/2000/svg">
<path d="M13.6871 10.125C13.6886 10.3555 13.6186 10.5807 13.4868 10.7697C13.355 10.9588 13.1678 11.1023 12.9511 11.1806L9.28359 12.5318L7.93241 16.1993C7.85284 16.4153 7.70897 16.6016 7.52021 16.7332C7.33145 16.8648 7.10687 16.9354 6.87676 16.9354C6.64665 16.9354 6.42207 16.8648 6.23331 16.7332C6.04455 16.6016 5.90069 16.4153 5.82111 16.1993L4.46993 12.5318L0.802422 11.1806C0.586506 11.1011 0.400182 10.9572 0.268575 10.7684C0.136967 10.5797 0.0664063 10.3551 0.0664063 10.125C0.0664062 9.89489 0.136967 9.67031 0.268575 9.48155C0.400182 9.29279 0.586506 9.14892 0.802422 9.06935L4.46993 7.71817L5.82111 4.05066C5.90069 3.83474 6.04455 3.64842 6.23331 3.51681C6.42207 3.3852 6.64665 3.31464 6.87676 3.31464C7.10687 3.31464 7.33145 3.3852 7.52021 3.51681C7.70897 3.64842 7.85284 3.83474 7.93241 4.05066L9.28359 7.71817L12.9511 9.06935C13.1678 9.14766 13.355 9.29122 13.4868 9.48026C13.6186 9.6693 13.6886 9.89455 13.6871 10.125ZM9.68926 3.375H10.8143V4.5C10.8143 4.64918 10.8735 4.79226 10.979 4.89775C11.0845 5.00324 11.2276 5.0625 11.3768 5.0625C11.5259 5.0625 11.669 5.00324 11.7745 4.89775C11.88 4.79226 11.9393 4.64918 11.9393 4.5V3.375H13.0643C13.2134 3.375 13.3565 3.31574 13.462 3.21025C13.5675 3.10476 13.6268 2.96168 13.6268 2.8125C13.6268 2.66332 13.5675 2.52024 13.462 2.41475C13.3565 2.30926 13.2134 2.25 13.0643 2.25H11.9393V1.125C11.9393 0.975816 11.88 0.832742 11.7745 0.727252C11.669 0.621763 11.5259 0.5625 11.3768 0.5625C11.2276 0.5625 11.0845 0.621763 10.979 0.727252C10.8735 0.832742 10.8143 0.975816 10.8143 1.125V2.25H9.68926C9.54008 2.25 9.397 2.30926 9.29151 2.41475C9.18603 2.52024 9.12676 2.66332 9.12676 2.8125C9.12676 2.96168 9.18603 3.10476 9.29151 3.21025C9.397 3.31574 9.54008 3.375 9.68926 3.375ZM15.8768 5.625H15.3143V5.0625C15.3143 4.91332 15.255 4.77024 15.1495 4.66475C15.044 4.55926 14.9009 4.5 14.7518 4.5C14.6026 4.5 14.4595 4.55926 14.354 4.66475C14.2485 4.77024 14.1893 4.91332 14.1893 5.0625V5.625H13.6268C13.4776 5.625 13.3345 5.68426 13.229 5.78975C13.1235 5.89524 13.0643 6.03832 13.0643 6.1875C13.0643 6.33668 13.1235 6.47976 13.229 6.58525C13.3345 6.69074 13.4776 6.75 13.6268 6.75H14.1893V7.3125C14.1893 7.46168 14.2485 7.60476 14.354 7.71025C14.4595 7.81574 14.6026 7.875 14.7518 7.875C14.9009 7.875 15.044 7.81574 15.1495 7.71025C15.255 7.60476 15.3143 7.46168 15.3143 7.3125V6.75H15.8768C16.0259 6.75 16.169 6.69074 16.2745 6.58525C16.38 6.47976 16.4393 6.33668 16.4393 6.1875C16.4393 6.03832 16.38 5.89524 16.2745 5.78975C16.169 5.68426 16.0259 5.625 15.8768 5.625Z" fill="white"/>
</svg>
